<mxfile host="app.diagrams.net" agent="Mozilla/5.0 (Windows NT 10.0; Win64; x64) AppleWebKit/537.36 (KHTML, like Gecko) Chrome/135.0.0.0 Safari/537.36" version="26.2.14">
  <diagram name="PÃ¡gina-1" id="5x9XDhcGxlXRKqn8Yzqd">
    <mxGraphModel dx="1026" dy="516" grid="1" gridSize="10" guides="1" tooltips="1" connect="1" arrows="1" fold="1" page="1" pageScale="1" pageWidth="827" pageHeight="1169" math="0" shadow="0">
      <root>
        <mxCell id="0" />
        <mxCell id="1" parent="0" />
        <mxCell id="n366VSGjI_HjgEOfrgP5-9" style="edgeStyle=orthogonalEdgeStyle;rounded=0;orthogonalLoop=1;jettySize=auto;html=1;exitX=0.5;exitY=1;exitDx=0;exitDy=0;exitPerimeter=0;entryX=0.5;entryY=0;entryDx=0;entryDy=0;" edge="1" parent="1" source="n366VSGjI_HjgEOfrgP5-2" target="n366VSGjI_HjgEOfrgP5-4">
          <mxGeometry relative="1" as="geometry" />
        </mxCell>
        <mxCell id="n366VSGjI_HjgEOfrgP5-2" value="INICIO" style="strokeWidth=2;html=1;shape=mxgraph.flowchart.start_2;whiteSpace=wrap;" vertex="1" parent="1">
          <mxGeometry x="363" y="40" width="100" height="100" as="geometry" />
        </mxCell>
        <mxCell id="n366VSGjI_HjgEOfrgP5-3" value="FIN" style="strokeWidth=2;html=1;shape=mxgraph.flowchart.start_2;whiteSpace=wrap;" vertex="1" parent="1">
          <mxGeometry x="363" y="560" width="100" height="100" as="geometry" />
        </mxCell>
        <mxCell id="n366VSGjI_HjgEOfrgP5-10" style="edgeStyle=orthogonalEdgeStyle;rounded=0;orthogonalLoop=1;jettySize=auto;html=1;exitX=0.5;exitY=1;exitDx=0;exitDy=0;entryX=0.5;entryY=0;entryDx=0;entryDy=0;" edge="1" parent="1" source="n366VSGjI_HjgEOfrgP5-4">
          <mxGeometry relative="1" as="geometry">
            <mxPoint x="412.9999999999998" y="270" as="targetPoint" />
          </mxGeometry>
        </mxCell>
        <mxCell id="n366VSGjI_HjgEOfrgP5-4" value="&lt;span style=&quot;color: rgb(26, 26, 26);&quot;&gt;Mostrar mensaje: &quot;Por favor, ingrese la edad del cliente: &quot;&lt;/span&gt;" style="shape=parallelogram;html=1;strokeWidth=2;perimeter=parallelogramPerimeter;whiteSpace=wrap;rounded=1;arcSize=12;size=0.23;flipH=1;flipV=1;container=1;" vertex="1" parent="1">
          <mxGeometry x="308" y="160" width="210" height="80" as="geometry" />
        </mxCell>
        <mxCell id="n366VSGjI_HjgEOfrgP5-8" value="&lt;div&gt;&lt;font style=&quot;color: light-dark(rgb(0, 0, 0), rgb(255, 255, 255));&quot;&gt;&amp;nbsp; &amp;nbsp; &amp;nbsp; &amp;nbsp; Mostrar mensaje:&amp;nbsp;&lt;/font&gt;&lt;/div&gt;&lt;div&gt;&lt;font style=&quot;color: light-dark(rgb(0, 0, 0), rgb(255, 255, 255));&quot;&gt;&quot;El cliente NO puede ingresar&amp;nbsp;&lt;/font&gt;&lt;/div&gt;&lt;div&gt;&lt;font style=&quot;color: light-dark(rgb(0, 0, 0), rgb(255, 255, 255));&quot;&gt;a la discoteca por&lt;/font&gt;&lt;/div&gt;&lt;div&gt;&lt;font style=&quot;color: light-dark(rgb(0, 0, 0), rgb(255, 255, 255));&quot;&gt;&amp;nbsp;ser menor de edad&quot;&lt;/font&gt;&lt;/div&gt;&lt;div&gt;&lt;br&gt;&lt;/div&gt;" style="shape=parallelogram;html=1;strokeWidth=2;perimeter=parallelogramPerimeter;whiteSpace=wrap;rounded=1;arcSize=12;size=0.23;flipH=1;flipV=1;container=1;" vertex="1" parent="1">
          <mxGeometry x="560" y="295" width="230" height="80" as="geometry" />
        </mxCell>
        <mxCell id="n366VSGjI_HjgEOfrgP5-15" style="edgeStyle=orthogonalEdgeStyle;rounded=0;orthogonalLoop=1;jettySize=auto;html=1;entryX=0;entryY=0.5;entryDx=0;entryDy=0;" edge="1" parent="1" source="n366VSGjI_HjgEOfrgP5-14" target="n366VSGjI_HjgEOfrgP5-8">
          <mxGeometry relative="1" as="geometry" />
        </mxCell>
        <mxCell id="n366VSGjI_HjgEOfrgP5-16" value="NO" style="edgeLabel;html=1;align=center;verticalAlign=middle;resizable=0;points=[];" vertex="1" connectable="0" parent="n366VSGjI_HjgEOfrgP5-15">
          <mxGeometry x="-0.3316" y="-1" relative="1" as="geometry">
            <mxPoint as="offset" />
          </mxGeometry>
        </mxCell>
        <mxCell id="n366VSGjI_HjgEOfrgP5-18" style="edgeStyle=orthogonalEdgeStyle;rounded=0;orthogonalLoop=1;jettySize=auto;html=1;" edge="1" parent="1" source="n366VSGjI_HjgEOfrgP5-14" target="n366VSGjI_HjgEOfrgP5-17">
          <mxGeometry relative="1" as="geometry" />
        </mxCell>
        <mxCell id="n366VSGjI_HjgEOfrgP5-20" value="SI" style="edgeLabel;html=1;align=center;verticalAlign=middle;resizable=0;points=[];" vertex="1" connectable="0" parent="n366VSGjI_HjgEOfrgP5-18">
          <mxGeometry x="0.3365" relative="1" as="geometry">
            <mxPoint as="offset" />
          </mxGeometry>
        </mxCell>
        <mxCell id="n366VSGjI_HjgEOfrgP5-14" value="Si edad &amp;gt;= 18" style="strokeWidth=2;html=1;shape=mxgraph.flowchart.decision;whiteSpace=wrap;" vertex="1" parent="1">
          <mxGeometry x="336" y="270" width="154" height="130" as="geometry" />
        </mxCell>
        <mxCell id="n366VSGjI_HjgEOfrgP5-17" value="&lt;div&gt;&lt;font style=&quot;color: light-dark(rgb(0, 0, 0), rgb(255, 255, 255));&quot;&gt;&amp;nbsp; &amp;nbsp; &amp;nbsp; &amp;nbsp; Mostrar mensaje:&amp;nbsp;&lt;/font&gt;&lt;/div&gt;&lt;div&gt;&lt;font style=&quot;color: light-dark(rgb(0, 0, 0), rgb(255, 255, 255));&quot;&gt;&quot;El cliente puede ingresar&amp;nbsp;&lt;/font&gt;&lt;/div&gt;&lt;div&gt;&lt;font style=&quot;color: light-dark(rgb(0, 0, 0), rgb(255, 255, 255));&quot;&gt;a la discoteca&lt;/font&gt;&lt;span style=&quot;color: light-dark(rgb(0, 0, 0), rgb(255, 255, 255)); background-color: transparent;&quot;&gt;&quot;&lt;/span&gt;&lt;/div&gt;&lt;div&gt;&lt;br&gt;&lt;/div&gt;" style="shape=parallelogram;html=1;strokeWidth=2;perimeter=parallelogramPerimeter;whiteSpace=wrap;rounded=1;arcSize=12;size=0.23;flipH=1;flipV=1;container=1;" vertex="1" parent="1">
          <mxGeometry x="298" y="430" width="230" height="80" as="geometry" />
        </mxCell>
        <mxCell id="n366VSGjI_HjgEOfrgP5-19" style="edgeStyle=orthogonalEdgeStyle;rounded=0;orthogonalLoop=1;jettySize=auto;html=1;entryX=0.5;entryY=0;entryDx=0;entryDy=0;entryPerimeter=0;" edge="1" parent="1" source="n366VSGjI_HjgEOfrgP5-17" target="n366VSGjI_HjgEOfrgP5-3">
          <mxGeometry relative="1" as="geometry" />
        </mxCell>
      </root>
    </mxGraphModel>
  </diagram>
</mxfile>
